<svg xmlns="http://www.w3.org/2000/svg" viewBox="0 0 512 512" width="512" height="512" role="img" aria-label="AQ monogram favicon icon">
  <rect width="512" height="512" rx="112" ry="112" fill="#ffffff"/>
  <path d="M 225.27 66.58 L 222.29 68.82 L 214.84 76.64 L 199.19 95.64 L 177.96 124.32 L 157.85 154.49 L 141.08 182.06 L 126.93 207.39 L 112.03 236.44 L 98.25 266.62 L 78.13 268.11 L 70.31 269.97 L 63.23 272.58 L 52.80 278.54 L 47.21 284.12 L 44.61 288.59 L 43.12 294.93 L 44.23 300.51 L 48.33 305.73 L 53.17 307.96 L 59.51 307.96 L 62.86 306.85 L 68.07 303.12 L 75.90 299.40 L 81.48 297.91 L 84.84 298.28 L 66.21 349.31 L 55.78 386.56 L 52.80 400.72 L 50.57 415.99 L 50.94 419.34 L 53.17 425.30 L 56.15 428.65 L 59.51 430.52 L 63.60 431.63 L 66.96 431.63 L 72.92 429.40 L 77.76 424.56 L 79.99 419.34 L 84.09 396.99 L 88.56 379.11 L 97.13 349.31 L 104.95 326.22 L 113.52 303.87 L 115.01 302.00 L 118.73 300.89 L 163.06 310.94 L 178.33 312.81 L 200.31 312.81 L 202.92 333.29 L 207.02 356.02 L 211.11 372.41 L 217.07 389.91 L 222.66 402.21 L 230.86 415.24 L 239.05 424.18 L 244.64 428.28 L 249.11 430.52 L 257.68 432.75 L 261.77 432.75 L 266.62 431.63 L 269.97 429.77 L 272.58 426.79 L 273.69 424.18 L 273.69 418.97 L 271.83 414.87 L 257.68 401.46 L 250.23 391.03 L 243.89 377.25 L 238.68 359.74 L 239.05 358.62 L 240.17 359.00 L 244.27 367.19 L 250.60 376.88 L 257.30 385.44 L 265.50 394.01 L 280.40 405.56 L 297.91 414.87 L 307.22 418.22 L 317.28 420.83 L 335.16 423.07 L 347.08 422.69 L 357.51 421.20 L 367.94 418.60 L 374.64 415.99 L 376.50 415.99 L 388.80 429.03 L 398.11 436.85 L 409.66 443.55 L 417.11 446.16 L 427.16 448.02 L 436.85 448.02 L 449.51 445.04 L 456.59 441.32 L 464.04 434.61 L 467.77 428.28 L 468.51 421.20 L 467.02 417.48 L 465.16 415.62 L 462.92 414.50 L 458.45 414.50 L 449.51 420.09 L 443.55 421.95 L 436.10 422.32 L 429.40 421.20 L 423.07 418.97 L 414.13 413.75 L 402.58 402.58 L 402.58 401.83 L 412.64 393.27 L 420.46 384.70 L 428.28 373.90 L 436.85 358.62 L 442.81 344.47 L 446.91 331.43 L 449.51 319.51 L 451.38 302.00 L 451.00 284.50 L 448.77 268.11 L 445.42 254.70 L 439.83 239.80 L 433.50 227.50 L 424.93 214.84 L 418.97 207.76 L 405.56 195.47 L 395.13 188.39 L 382.46 182.06 L 370.17 177.96 L 358.62 175.73 L 342.61 174.98 L 330.69 176.10 L 315.41 179.45 L 306.47 182.43 L 295.30 187.27 L 283.75 193.61 L 270.71 202.92 L 258.42 214.47 L 250.60 223.78 L 244.27 233.09 L 237.19 246.13 L 231.23 261.77 L 229.74 261.77 L 230.48 226.01 L 234.21 186.16 L 240.54 142.57 L 250.97 85.58 L 250.97 77.39 L 250.23 74.41 L 247.62 69.56 L 244.64 66.58 L 241.29 64.72 L 237.56 63.60 L 233.09 63.60 Z M 351.17 204.78 L 360.11 206.27 L 368.68 208.88 L 381.35 215.21 L 389.91 221.54 L 397.74 229.37 L 404.81 238.68 L 411.15 249.85 L 415.62 261.03 L 418.22 269.97 L 420.09 280.03 L 421.20 292.69 L 420.46 309.45 L 416.73 327.71 L 412.26 340.00 L 408.54 347.82 L 399.60 361.98 L 394.38 368.31 L 385.07 377.25 L 383.95 376.88 L 373.15 363.84 L 360.11 351.17 L 347.08 341.49 L 335.16 335.16 L 325.84 331.80 L 312.81 329.57 L 306.85 329.57 L 299.40 330.69 L 290.83 334.04 L 288.22 336.65 L 286.73 340.74 L 287.10 344.84 L 289.71 348.94 L 294.18 351.17 L 310.57 354.15 L 318.02 356.76 L 326.59 361.23 L 340.37 371.66 L 350.43 381.72 L 357.51 390.29 L 356.76 392.15 L 348.19 394.01 L 330.31 394.01 L 313.92 390.29 L 297.91 382.84 L 284.87 373.52 L 276.30 364.96 L 271.83 359.37 L 265.87 350.06 L 262.15 342.61 L 257.30 328.82 L 254.32 312.81 L 254.32 291.95 L 258.05 272.95 L 265.50 254.70 L 269.60 247.62 L 276.30 238.31 L 287.48 226.76 L 301.26 216.70 L 316.16 209.62 L 324.35 207.02 L 333.29 205.15 L 341.49 204.41 Z M 215.21 119.85 L 215.58 122.09 L 205.90 173.49 L 201.43 208.88 L 198.82 247.25 L 198.82 283.38 L 198.08 284.12 L 180.94 284.12 L 170.14 283.01 L 157.10 280.40 L 126.93 272.58 L 126.93 269.97 L 137.73 246.50 L 150.77 220.80 L 164.92 195.47 L 192.49 150.77 L 213.35 120.97 Z" fill="#000000" fill-rule="evenodd"/>
</svg>